<?xml version="1.0" encoding="UTF-8"?>
<svg width="205px" height="80px" viewBox="0 0 205 80" version="1.1" xmlns="http://www.w3.org/2000/svg" xmlns:xlink="http://www.w3.org/1999/xlink">
    <!-- Generator: Sketch 41 (35326) - http://www.bohemiancoding.com/sketch -->
    <title>L_FORZA_digital_2016_diap_FC</title>
    <desc>Created with Sketch.</desc>
    <defs>
        <polygon id="path-1" points="0.0516806723 0.447311828 0.0516806723 79.3780645 204.628761 79.3780645 204.628761 0.447311828 0.0516806723 0.447311828"></polygon>
    </defs>
    <g id="Symbols" stroke="none" stroke-width="1" fill="none" fill-rule="evenodd">
        <g id="Header" transform="translate(-40.000000, -30.000000)">
            <g id="Group-4" transform="translate(40.000000, 30.000000)">
                <g id="L_FORZA_digital_2016_diap_FC">
                    <path d="M70.420084,23.8572043 L66.4492857,24.2554839 L63.040084,27.5802151 L63.5405252,31.12 C63.5396639,31.1217204 63.5379412,31.1225806 63.5370798,31.1243011 C63.5060714,31.1982796 61.9832143,34.7449462 58.5033824,35.4090323 L58.5033824,37.6395699 L63.2011555,40.5582796 L65.3054202,38.2382796 L71.0118277,26.5376344 L70.420084,23.8572043 Z M53.532563,42.0765591 L57.4396218,43.8356989 L61.3466807,42.0765591 L57.4396218,39.6490323 L53.532563,42.0765591 Z M56.375,35.4090323 C52.8960294,34.7449462 51.3731723,31.1982796 51.3421639,31.1243011 C51.3404412,31.1225806 51.3395798,31.1217204 51.3378571,31.12 L51.8391597,27.5802151 L48.4290966,24.2554839 L44.4591597,23.8572043 L43.867416,26.5376344 L49.5729622,38.2382796 L51.6780882,40.5582796 L56.375,37.6395699 L56.375,35.4090323 Z M53.6557353,22.4997849 L44.9509874,21.6275269 L45.870042,17.4649462 C46.1577311,17.4649462 56.5283193,14.0843011 57.4396218,13.7875269 C58.3509244,14.0843011 68.7215126,17.4649462 69.0083403,17.4649462 L69.927395,21.6275269 L61.2226471,22.4997849 C60.9160084,22.5307527 60.6343487,22.6847312 60.4439916,22.9273118 C60.2527731,23.1698925 60.1692227,23.4795699 60.2114286,23.7849462 L61.2252311,31.0443011 C61.2295378,31.0701075 61.245042,31.0916129 61.2502101,31.1174194 L53.6290336,31.1174194 C53.6342017,31.0916129 53.6497059,31.0701075 53.6531513,31.0443011 L54.6669538,23.7849462 C54.710021,23.4795699 54.6256092,23.1698925 54.4352521,22.9273118 C54.244895,22.6847312 53.9632353,22.5307527 53.6557353,22.4997849 L53.6557353,22.4997849 Z" id="Fill-1" fill="#35A0CE"></path>
                    <path d="M63.3665336,75.2464516 L62.270042,75.2464516 L62.270042,64.744086 L63.4164916,64.744086 C66.5560924,64.744086 68.7740546,66.6348387 68.7740546,69.9948387 C68.7740546,73.6533333 66.2821849,75.2464516 63.3665336,75.2464516 Z M64.3131513,60.6124731 L57.3853571,60.6124731 L57.3853571,79.3780645 L64.3131513,79.3780645 C69.5217017,79.3780645 73.8577101,75.2713978 73.8577101,69.9948387 C73.8577101,64.7191398 69.5466807,60.6124731 64.3131513,60.6124731 L64.3131513,60.6124731 Z" id="Fill-2" fill="#FFFFFF"></path>
                    <polygon id="Fill-3" fill="#FFFFFF" points="75.3693697 79.3780645 80.2540546 79.3780645 80.2540546 60.6124731 75.3693697 60.6124731"></polygon>
                    <path d="M91.7323319,72.7329032 L95.7194958,72.7329032 C95.5205252,74.8980645 93.9003361,75.9931183 91.7822899,75.9931183 C88.5677521,75.9931183 86.8226681,73.0313978 86.8226681,70.1195699 C86.8226681,67.2576344 88.4928151,64.196129 91.7073529,64.196129 C93.6763866,64.196129 95.0967437,65.3909677 95.7694538,67.1827957 L100.404349,65.2421505 C98.785021,61.7324731 95.7944328,59.9905376 91.9321639,59.9905376 C85.8760504,59.9905376 81.7390126,63.9974194 81.7390126,70.0946237 C81.7390126,75.9931183 85.8510714,80 91.7573109,80 C94.8977731,80 97.6635504,78.88 99.5076891,76.3165591 C101.176975,73.9767742 101.376807,71.6378495 101.426765,68.8997849 L91.7323319,68.8997849 L91.7323319,72.7329032" id="Fill-4" fill="#FFFFFF"></path>
                    <g id="Group-8">
                        <mask id="mask-2" fill="white">
                            <use xlink:href="#path-1"></use>
                        </mask>
                        <g id="Clip-6"></g>
                        <polyline id="Fill-5" fill="#FFFFFF" mask="url(#mask-2)" points="142.871218 75.2464516 142.871218 60.6124731 137.986534 60.6124731 137.986534 74.7965591 129.416155 60.676129 120.564118 75.2602151 118.462437 75.2602151 118.462437 64.744086 122.499559 64.744086 122.499559 60.6124731 102.912584 60.6124731 102.912584 79.3780645 107.797269 79.3780645 107.797269 64.744086 113.578613 64.744086 113.578613 79.3780645 123.081828 79.3772043 129.503151 69.1948387 135.696218 79.3772043 148.7275 79.3780645 148.7275 75.2464516 142.871218 75.2464516"></polyline>
                        <path d="M57.4292857,51.5939785 C42.9052941,51.5939785 32.4020588,40.8997849 32.4020588,25.7298925 C32.4020588,11.5535484 44.404895,1.60602151 57.4292857,1.60602151 C70.4528151,1.60602151 82.4547899,11.5535484 82.4547899,25.7298925 C82.4547899,40.8997849 71.952416,51.5939785 57.4292857,51.5939785 Z M173.939916,0.447311828 L150.007458,39.8787097 L136.98479,39.8787097 L160.823361,0.447311828 L123.795021,0.447311828 L123.795021,11.5802151 L139.964181,11.5802151 L119.521891,45.2043011 L109.74563,30.2890323 C116.930966,29.015914 120.592542,22.9797849 120.592542,16.0051613 C120.592542,5.20860215 113.237521,0.447311828 103.232143,0.447311828 L79.5942647,0.447311828 L79.5942647,12.0997849 C74.8232773,4.91870968 66.4311975,0.487741935 57.5714076,0.449892473 L57.5731303,0.447311828 L0,0.447311828 L0,51.0116129 L13.1613445,51.0116129 L13.1613445,31.1612903 L25.6930462,31.1612903 L25.6930462,20.0292473 L13.1613445,20.0292473 L13.1613445,11.5802151 L35.6846429,11.5802151 C32.9223109,15.5139785 31.2607773,20.3131183 31.2607773,25.7006452 C31.2607773,41.5810753 42.2558403,52.7750538 57.4594328,52.7750538 C67.1185504,52.7750538 75.0730672,48.2529032 79.5942647,40.8851613 L79.5942647,51.0116129 L92.7547479,51.0116129 L92.7547479,10.5066667 L98.6937185,10.5066667 C102.990966,10.5066667 107.825693,11.3109677 107.825693,16.8103226 C107.825693,22.2374194 103.118445,23.0898925 98.8651261,23.1113978 L98.8651261,33.2972043 L109.041912,51.0116129 L156.815525,51.0098925 L174.174202,23.4812903 L190.917878,51.0098925 L204.628761,51.0098925 L173.939916,0.447311828 L173.939916,0.447311828 Z" id="Fill-7" fill="#FFFFFF" mask="url(#mask-2)"></path>
                    </g>
                </g>
            </g>
        </g>
    </g>
</svg>